<?xml version="1.0" encoding="UTF-8"?>
<svg version="1.1" xmlns="http://www.w3.org/2000/svg" width="600" height="600">
<path d="M0 0 C4.25565768 0.53842871 7.08981682 3.14363018 10.3125 5.75 C10.92061523 6.2344458 11.52873047 6.7188916 12.15527344 7.21801758 C17.44276673 11.46733034 22.56609436 15.899405 27.66870117 20.36767578 C31.85401052 24.02907028 36.12201379 27.54839204 40.4921875 30.98828125 C43.46240429 33.37093179 46.35597354 35.83861586 49.25 38.3125 C54.41627626 42.7226045 59.69275024 46.96688373 65.06738281 51.12036133 C65.60975586 51.5408374 66.15212891 51.96131348 66.7109375 52.39453125 C67.54081177 53.01859863 67.54081177 53.01859863 68.38745117 53.65527344 C70 55 70 55 71.35668945 56.61816406 C75.26055225 60.96950007 79.33169757 61.66037535 84.99609375 62.0078125 C88.14555552 62.13024387 91.28598588 62.14701538 94.4375 62.125 C95.25257019 62.12469788 96.06764038 62.12439575 96.90740967 62.12408447 C108.58149302 62.03851045 116.99795447 61.14290935 125.5546875 52.56640625 C126.10092773 51.98391113 126.64716797 51.40141602 127.20996094 50.80126953 C130.56898472 47.42117168 134.45389074 44.67840837 138.25 41.8125 C139.77661952 40.62480831 141.30141735 39.43477067 142.82421875 38.2421875 C147.13664889 34.88409204 151.50004843 31.60176446 155.8828125 28.3359375 C159.01068266 25.9919947 162.1217941 23.62765515 165.22631836 21.25292969 C166.69379622 20.13105526 168.16334622 19.01188585 169.63500977 17.89550781 C173.03524479 15.30914461 176.39276667 12.69821617 179.66015625 9.9453125 C188.72467113 2.40107074 188.72467113 2.40107074 194.3125 2.375 C195.529375 2.58125 196.74625 2.7875 198 3 C198 3.66 198 4.32 198 5 C200.97 5.33 203.94 5.66 207 6 C207 6.66 207 7.32 207 8 C209.97 8.33 212.94 8.66 216 9 C216 9.66 216 10.32 216 11 C218.97 11.33 221.94 11.66 225 12 C225 12.66 225 13.32 225 14 C225.63808594 14.04898437 226.27617187 14.09796875 226.93359375 14.1484375 C227.75988281 14.22320312 228.58617187 14.29796875 229.4375 14.375 C230.26121094 14.44460938 231.08492188 14.51421875 231.93359375 14.5859375 C232.61550781 14.72257812 233.29742187 14.85921875 234 15 C234.33 15.66 234.66 16.32 235 17 C237.90259811 18.3749149 239.76138705 19 243 19 C245.625 19.875 245.625 19.875 248 21 C248.33 21.66 248.66 22.32 249 23 C250.86492402 23.38995102 250.86492402 23.38995102 253 23.5 C255.1875 23.65625 255.1875 23.65625 257 24 C257.33 24.66 257.66 25.32 258 26 C260.02463255 26.65213292 260.02463255 26.65213292 262 27 C262 27.66 262 28.32 262 29 C262.66 29 263.32 29 264 29 C264 28.34 264 27.68 264 27 C264.99 27 265.98 27 267 27 C267.33 27.66 267.66 28.32 268 29 C268.66 29.165 269.32 29.33 270 29.5 C270.66 29.665 271.32 29.83 272 30 C272.33 30.66 272.66 31.32 273 32 C275.02463255 32.65213292 275.02463255 32.65213292 277 33 C277 33.66 277 34.32 277 35 C278.98 35.33 280.96 35.66 283 36 C283 36.66 283 37.32 283 38 C283.61488281 38.20496094 284.22976563 38.40992188 284.86328125 38.62109375 C288.2421875 39.74739583 291.62109375 40.87369792 295 42 C295 42.66 295 43.32 295 44 C296.98 44.33 298.96 44.66 301 45 C301 45.66 301 46.32 301 47 C301.99 47 302.98 47 304 47 C304.33 47.66 304.66 48.32 305 49 C306.32 49 307.64 49 309 49 C309.33 49.66 309.66 50.32 310 51 C309.67 51.66 309.34 52.32 309 53 C311.64 53 314.28 53 317 53 C317 53.99 317 54.98 317 56 C317.66 56.33 318.32 56.66 319 57 C318.67 57.66 318.34 58.32 318 59 C319.32 59.33 320.64 59.66 322 60 C321.67 60.66 321.34 61.32 321 62 C321.66 62 322.32 62 323 62 C323 61.01 323 60.02 323 59 C324.32 59.33 325.64 59.66 327 60 C327 60.66 327 61.32 327 62 C327.66 62 328.32 62 329 62 C331.125 63.8125 331.125 63.8125 333 66 C333 66.99 333 67.98 333 69 C332.34 69 331.68 69 331 69 C331 69.66 331 70.32 331 71 C331.66 71 332.32 71 333 71 C333 71.99 333 72.98 333 74 C333.86625 74.185625 333.86625 74.185625 334.75 74.375 C337.10280066 75.02855574 338.95342262 75.65913896 341 77 C341.75 79.125 341.75 79.125 342 81 C341.34 81 340.68 81 340 81 C340 81.66 340 82.32 340 83 C340.66 83 341.32 83 342 83 C344.98199855 85.98199855 345 87.78755161 345 92 C346.485 91.505 346.485 91.505 348 91 C348.28875 92.051875 348.5775 93.10375 348.875 94.1875 C349.88930551 97.86177831 349.88930551 97.86177831 351.125 100.75 C352 103 352 103 352 106 C354.475 106.99 354.475 106.99 357 108 C357.04898438 108.91523437 357.09796875 109.83046875 357.1484375 110.7734375 C357.22320313 111.96195313 357.29796875 113.15046875 357.375 114.375 C357.44460938 115.55835938 357.51421875 116.74171875 357.5859375 117.9609375 C357.70217346 121.10562319 357.70217346 121.10562319 360 123 C360 125 360 127 360 129 C360.28032215 130.42338336 360.59563792 131.84013085 360.9375 133.25 C361.94525358 137.43714516 362.42026741 141.54629525 362.75390625 145.8359375 C362.94475983 148.17929747 362.94475983 148.17929747 364 151 C364 156.94 364 162.88 364 169 C186.46 169 8.92 169 -174 169 C-174 152 -174 152 -172 146 C-171.96079185 144.00038436 -171.95556653 141.99950636 -172 140 C-171.67 139.01 -171.34 138.02 -171 137 C-170.93259135 135.43881572 -170.91485544 133.8749748 -170.9375 132.3125 C-170.94652344 131.50425781 -170.95554688 130.69601562 -170.96484375 129.86328125 C-170.98224609 128.94095703 -170.98224609 128.94095703 -171 128 C-169.515 127.505 -169.515 127.505 -168 127 C-168 122.71 -168 118.42 -168 114 C-167.34 114.33 -166.68 114.66 -166 115 C-165.97873047 114.00419922 -165.97873047 114.00419922 -165.95703125 112.98828125 C-165.55476365 105.54089456 -165.55476365 105.54089456 -162.5 102.5625 C-158.68011537 98.64711825 -159.10176762 94.28266477 -159 89 C-157.02 89 -155.04 89 -153 89 C-153 88.34 -153 87.68 -153 87 C-154.485 86.505 -154.485 86.505 -156 86 C-155.505 84.515 -155.505 84.515 -155 83 C-152.9375 82.3125 -152.9375 82.3125 -151 82 C-150.67 79.69 -150.34 77.38 -150 75 C-149.195625 74.71125 -148.39125 74.4225 -147.5625 74.125 C-144.8673532 73.26737432 -144.8673532 73.26737432 -144 71 C-143.01 71 -142.02 71 -141 71 C-141 70.01 -141 69.02 -141 68 C-139.66666667 66.66666667 -138.33333333 65.33333333 -137 64 C-137.3185177 61.89179203 -137.3185177 61.89179203 -138 60 C-134.68031316 59.14330662 -132.50517607 59 -129 59 C-129.33 58.01 -129.66 57.02 -130 56 C-129.01 55.34 -128.02 54.68 -127 54 C-125.80767387 51.94996045 -125.80767387 51.94996045 -125 50 C-123.66666667 50 -122.33333333 50 -121 50 C-119.32936253 49.00664799 -117.66324401 48.00568242 -116 47 C-114.88625 46.505 -114.88625 46.505 -113.75 46 C-111.64862526 45.05720054 -111.64862526 45.05720054 -111 42 C-110.2575 41.87625 -109.515 41.7525 -108.75 41.625 C-106.19858515 41.04513299 -104.2732427 40.26291261 -102 39 C-102 39.66 -102 40.32 -102 41 C-101.34 41 -100.68 41 -100 41 C-100 40.01 -100 39.02 -100 38 C-99.34 38 -98.68 38 -98 38 C-98 37.34 -98 36.68 -98 36 C-97.360625 35.87625 -96.72125 35.7525 -96.0625 35.625 C-95.381875 35.41875 -94.70125 35.2125 -94 35 C-93.505 34.01 -93.505 34.01 -93 33 C-92.01 33 -91.02 33 -90 33 C-90 33.66 -90 34.32 -90 35 C-89.34 35 -88.68 35 -88 35 C-88 34.34 -88 33.68 -88 33 C-87.195625 32.87625 -86.39125 32.7525 -85.5625 32.625 C-84.716875 32.41875 -83.87125 32.2125 -83 32 C-82.67 31.34 -82.34 30.68 -82 30 C-80.35636866 29.27840576 -78.68949614 28.60648579 -77 28 C-77 27.67 -77 27.34 -77 27 C-73.7 26.67 -70.4 26.34 -67 26 C-67 25.34 -67 24.68 -67 24 C-65.35 23.34 -63.7 22.68 -62 22 C-62 21.67 -62 21.34 -62 21 C-58.92382812 20.70703125 -58.92382812 20.70703125 -55.84765625 20.4140625 C-55.23792969 20.27742188 -54.62820312 20.14078125 -54 20 C-53.67 19.34 -53.34 18.68 -53 18 C-50.93359375 17.5859375 -50.93359375 17.5859375 -48.4375 17.375 C-47.61121094 17.30023438 -46.78492188 17.22546875 -45.93359375 17.1484375 C-44.97646484 17.07496094 -44.97646484 17.07496094 -44 17 C-44 16.34 -44 15.68 -44 15 C-40.92382812 14.70703125 -40.92382812 14.70703125 -37.84765625 14.4140625 C-37.23792969 14.27742188 -36.62820312 14.14078125 -36 14 C-35.67 13.34 -35.34 12.68 -35 12 C-32.35139573 11.40644386 -29.70802678 11.25790731 -27 11 C-27 10.34 -27 9.68 -27 9 C-25.35 9 -23.7 9 -22 9 C-22 8.01 -22 7.02 -22 6 C-17.71 5.67 -13.42 5.34 -9 5 C-9 4.34 -9 3.68 -9 3 C-4.545 2.505 -4.545 2.505 0 2 C0 1.34 0 0.68 0 0 Z M-19 7 C-18.34 7.66 -17.68 8.32 -17 9 C-16.67 8.34 -16.34 7.68 -16 7 C-16.99 7 -17.98 7 -19 7 Z M-158 93 C-157 95 -157 95 -157 95 Z " fill="#FF6600" transform="translate(201,431)"/>
<path d="M0 0 C0.99 0 1.98 0 3 0 C4.2890625 1.6875 4.2890625 1.6875 5.625 4 C17.11102746 22.02118102 39.61730182 28.9568462 59.42626953 33.46826172 C67.2125359 35.07692119 75.1070866 36.07929285 83 37 C83.73524902 37.09571289 84.47049805 37.19142578 85.22802734 37.29003906 C93.62125682 38.28460735 102.06008192 38.2427547 110.5 38.25 C111.72221252 38.25151062 111.72221252 38.25151062 112.96911621 38.25305176 C145.50881866 38.22598443 187.27506879 35.02101858 212 11 C214.01916453 8.62581753 215.90540639 6.21882215 217.72265625 3.6875 C218.14417969 3.130625 218.56570313 2.57375 219 2 C219.33 2 219.66 2 220 2 C220.02465504 6.39656173 220.04283842 10.7930872 220.05493164 15.18969727 C220.05997121 16.68644918 220.06680287 18.18319616 220.07543945 19.67993164 C220.08752159 21.82699807 220.09323191 23.97399962 220.09765625 26.12109375 C220.10289307 27.4145874 220.10812988 28.70808105 220.11352539 30.04077148 C220 33 220 33 219 34 C218.84417697 35.34015221 218.74955858 36.68758903 218.68359375 38.03515625 C218.64169922 38.84404297 218.59980469 39.65292969 218.55664062 40.48632812 C218.51732422 41.33646484 218.47800781 42.18660156 218.4375 43.0625 C218.37272461 44.34350586 218.37272461 44.34350586 218.30664062 45.65039062 C218.20023298 47.76672037 218.09958269 49.88333813 218 52 C218.66 52 219.32 52 220 52 C220.81752303 53.58074564 221.62881997 55.16471223 222.4375 56.75 C222.88996094 57.63171875 223.34242188 58.5134375 223.80859375 59.421875 C228.49171501 69.55584231 226.97498279 83.92865158 223.33984375 94.1484375 C220.65325343 99.86625364 217.14170698 105.69099947 211 108 C208.859375 108.1953125 208.859375 108.1953125 206.75 108.125 C205.5125 108.08375 204.275 108.0425 203 108 C203 110.97 203 113.94 203 117 C202.01 116.67 201.02 116.34 200 116 C200.03480469 116.67546875 200.06960938 117.3509375 200.10546875 118.046875 C200.13253906 118.93890625 200.15960938 119.8309375 200.1875 120.75 C200.22230469 121.63171875 200.25710938 122.5134375 200.29296875 123.421875 C199.84254373 127.38561518 197.73830653 129.26169347 195 132 C194.63557767 133.66014616 194.30027117 135.32706064 194 137 C193.67 137.33 193.34 137.66 193 138 C193.40929986 140.05396726 193.40929986 140.05396726 194 142 C192.35 142.33 190.7 142.66 189 143 C189 143.66 189 144.32 189 145 C189.66 145 190.32 145 191 145 C191 145.99 191 146.98 191 148 C189.35 148.33 187.7 148.66 186 149 C186 149.66 186 150.32 186 151 C186.66 151 187.32 151 188 151 C188 151.99 188 152.98 188 154 C187.195625 154.2475 186.39125 154.495 185.5625 154.75 C182.828919 155.72238859 182.828919 155.72238859 182.1875 158.125 C182.125625 158.74375 182.06375 159.3625 182 160 C181.34 160 180.68 160 180 160 C179.67 162.97 179.34 165.94 179 169 C177.35 169 175.7 169 174 169 C173.855625 169.61875 173.71125 170.2375 173.5625 170.875 C173 173 173 173 172 175 C171.83329727 178.04173894 171.83329727 178.04173894 172 181 C172.33 181.33 172.66 181.66 173 182 C173.14115161 184.67058851 173.04247107 187.32432238 173 190 C173.99 190.33 174.98 190.66 176 191 C176 191.99 176 192.98 176 194 C175.34 194 174.68 194 174 194 C174 194.66 174 195.32 174 196 C174.66 196 175.32 196 176 196 C176.33 197.98 176.66 199.96 177 202 C178.32 202 179.64 202 181 202 C185 206.11111111 185 206.11111111 185 210 C186.98 210 188.96 210 191 210 C190.62667659 212.41665969 190.35374591 213.68029489 188.51074219 215.34594727 C187.86266602 215.74869873 187.21458984 216.1514502 186.546875 216.56640625 C185.79656006 217.04255371 185.04624512 217.51870117 184.27319336 218.00927734 C183.44053955 218.52184082 182.60788574 219.0344043 181.75 219.5625 C179.93280881 220.71099856 178.11645476 221.86082237 176.30078125 223.01171875 C175.30127441 223.64126465 174.30176758 224.27081055 173.27197266 224.91943359 C167.75481995 228.42765441 162.29976868 232.03024738 156.83825684 235.62423706 C154.98153033 236.84602654 153.12430008 238.0670425 151.26660156 239.28735352 C150.67660873 239.67536133 150.08661591 240.06336914 149.47874451 240.46313477 C148.30739739 241.22950234 147.13297393 241.99118935 145.95545959 242.74804688 C143.32504727 244.44214508 140.78057577 246.16911924 138.30151367 248.07983398 C130.12701014 254.13843777 122.27761579 254.39101358 112.4375 254.3125 C111.6356427 254.31325531 110.8337854 254.31401062 110.00762939 254.31478882 C97.24558835 254.22502308 89.12245302 252.17464162 79.859375 242.921875 C79.22966797 242.26251953 78.59996094 241.60316406 77.95117188 240.92382812 C74.66886709 237.68752161 70.90738385 235.17595412 67.125 232.5625 C65.64882998 231.50699255 64.17489517 230.44835261 62.703125 229.38671875 C61.95095703 228.8457959 61.19878906 228.30487305 60.42382812 227.74755859 C55.89071091 224.47922126 51.37395679 221.19021029 46.875 217.875 C45.99086426 217.23506104 45.10672852 216.59512207 44.19580078 215.93579102 C43.3861084 215.33565186 42.57641602 214.7355127 41.7421875 214.1171875 C40.65719971 213.32223877 40.65719971 213.32223877 39.55029297 212.51123047 C39.03869629 212.01252441 38.52709961 211.51381836 38 211 C38 210.01 38 209.02 38 208 C39.98 207.67 41.96 207.34 44 207 C44 206.34 44 205.68 44 205 C44.66 205 45.32 205 46 205 C46 204.01 46 203.02 46 202 C45.34 202 44.68 202 44 202 C44 201.01 44 200.02 44 199 C45.65 199 47.3 199 49 199 C49.33 196.03 49.66 193.06 50 190 C50.66 190 51.32 190 52 190 C52.33 187.03 52.66 184.06 53 181 C52.01 180.67 51.02 180.34 50 180 C49.505 176.535 49.505 176.535 49 173 C48.01 172.67 47.02 172.34 46 172 C46 171.01 46 170.02 46 169 C44.35 169 42.7 169 41 169 C41 167.68 41 166.36 41 165 C41.66 165 42.32 165 43 165 C43 164.34 43 163.68 43 163 C41.35 162.67 39.7 162.34 38 162 C37.87625 161.278125 37.7525 160.55625 37.625 159.8125 C37.00761529 157.0342688 36.10221661 154.61776445 35 152 C34.67 151.01 34.34 150.02 34 149 C33.34 149 32.68 149 32 149 C31.67 147.02 31.34 145.04 31 143 C30.34 143 29.68 143 29 143 C28.87625 142.030625 28.7525 141.06125 28.625 140.0625 C28.41875 139.051875 28.2125 138.04125 28 137 C27.34 136.67 26.68 136.34 26 136 C26.33 135.67 26.66 135.34 27 135 C25.68 134.34 24.36 133.68 23 133 C23 129.37 23 125.74 23 122 C21.515 122.495 21.515 122.495 20 123 C19.87625 122.38125 19.7525 121.7625 19.625 121.125 C19.12802644 118.80879168 19.12802644 118.80879168 17 117 C17.020625 116.01 17.04125 115.02 17.0625 114 C17.041875 113.01 17.02125 112.02 17 111 C15.515 110.01 15.515 110.01 14 109 C14 108.01 14 107.02 14 106 C13.154375 106 12.30875 106 11.4375 106 C5.67666557 104.32412089 2.67371793 99.89143841 -0.26171875 94.8203125 C-5.41331726 84.0574933 -6.59290553 71.70044684 -3.77734375 60.109375 C-2.92481492 57.79598018 -1.7943529 56.07291487 -0.375 54.0625 C2.76022851 49.38732102 2.47519065 45.46079744 2 40 C1.93167969 38.92105469 1.86335937 37.84210938 1.79296875 36.73046875 C1.88769582 31.4899641 1.88769582 31.4899641 0 27 C-0.08758003 25.00035018 -0.10696576 22.9976389 -0.09765625 20.99609375 C-0.09443359 19.78115234 -0.09121094 18.56621094 -0.08789062 17.31445312 C-0.07951172 16.03505859 -0.07113281 14.75566406 -0.0625 13.4375 C-0.05798828 12.15423828 -0.05347656 10.87097656 -0.04882812 9.54882812 C-0.03699545 6.36583978 -0.02051068 3.18294238 0 0 Z M18 113 C19 116 19 116 19 116 Z M24 128 C25 130 25 130 25 130 Z " fill="#FF6600" transform="translate(184,215)"/>
<path d="M0 0 C0.81537735 0.31257248 1.6307547 0.62514496 2.47084045 0.94718933 C5.14994357 1.97611647 7.82492221 3.01534492 10.5 4.0546875 C12.39484334 4.78476715 14.28994861 5.51416733 16.18530273 6.24291992 C20.07800833 7.74091002 23.9691035 9.24297322 27.85888672 10.74853516 C32.97644493 12.72877886 38.09847619 14.69712139 43.22265625 16.66015625 C67.38277898 25.92035352 91.50361187 35.28240178 115.62304688 44.64794922 C120.37615987 46.49356455 125.12978169 48.33786467 129.8835907 50.1816864 C133.27923144 51.49894389 136.67453913 52.81705787 140.06973267 54.13546753 C141.63583563 54.74346355 143.20205692 55.35115488 144.7684021 55.95852661 C146.89674062 56.78393282 149.02460672 57.61054474 151.15234375 58.4375 C152.33820068 58.89785645 153.52405762 59.35821289 154.74584961 59.83251953 C157.5 60.9296875 157.5 60.9296875 159.5 61.9296875 C158.5 64.9296875 158.5 64.9296875 156.47583008 65.97570801 C155.13621216 66.44889465 155.13621216 66.44889465 153.76953125 66.93164062 C152.7536644 67.2967424 151.73779755 67.66184418 150.69114685 68.03800964 C149.57619339 68.42507584 148.46123993 68.81214203 147.3125 69.2109375 C146.16084854 69.6207637 145.00919708 70.0305899 143.82264709 70.45283508 C140.70058632 71.56062007 137.57515695 72.65760224 134.44734573 73.74896622 C131.84538945 74.65851555 129.24619738 75.57582478 126.64693928 76.49305058 C118.60644072 79.3297934 110.55525609 82.13511156 102.5 84.9296875 C101.1584787 85.3961972 101.1584787 85.3961972 99.78985596 85.87213135 C79.56116636 92.90192296 59.12570989 99.29528142 38.6003418 105.40161133 C29.3325307 108.16616832 20.14962902 110.96000903 11.1171875 114.42578125 C-6.45109397 121.04529124 -18.85522833 121.35110437 -36.72987366 114.45753479 C-45.76525893 110.98664554 -55.04419985 108.28308393 -64.29656982 105.45736694 C-69.46709144 103.8685124 -74.62344082 102.23501807 -79.78125 100.60546875 C-87.06043922 98.31021732 -94.34938594 96.05316841 -101.65625 93.84765625 C-103.88847067 93.16916887 -106.12043693 92.48985132 -108.35232544 91.81027222 C-109.7317771 91.39310756 -111.11252841 90.98021429 -112.49459839 90.57180786 C-114.36288206 90.01952762 -116.22653654 89.45165657 -118.08984375 88.8828125 C-119.11972412 88.57504883 -120.14960449 88.26728516 -121.21069336 87.95019531 C-121.96616455 87.61342773 -122.72163574 87.27666016 -123.5 86.9296875 C-123.83 85.9396875 -124.16 84.9496875 -124.5 83.9296875 C-123.28441406 83.51976562 -122.06882813 83.10984375 -120.81640625 82.6875 C-119.23163831 82.14361515 -117.64701003 81.59932324 -116.0625 81.0546875 C-115.26005859 80.78527344 -114.45761719 80.51585937 -113.63085938 80.23828125 C-112.86708984 79.97402344 -112.10332031 79.70976562 -111.31640625 79.4375 C-110.60943604 79.19660645 -109.90246582 78.95571289 -109.17407227 78.70751953 C-107.29961195 78.04782991 -107.29961195 78.04782991 -106.5 75.9296875 C-107.50160156 76.20683594 -108.50320312 76.48398438 -109.53515625 76.76953125 C-110.87754409 77.13563702 -112.21999543 77.50151001 -113.5625 77.8671875 C-114.21927734 78.04958984 -114.87605469 78.23199219 -115.55273438 78.41992188 C-119.8587782 79.58658399 -124.07159654 80.38261555 -128.5 80.9296875 C-128.49066437 81.5454213 -128.48132874 82.16115509 -128.47171021 82.79554749 C-128.40429934 90.98615469 -128.81972816 99.1270258 -129.3046875 107.30078125 C-129.38960734 108.75521166 -129.4744965 110.20964387 -129.55935669 111.66407776 C-129.73681709 114.68888229 -129.91716124 117.71350012 -130.09912109 120.73803711 C-130.33146187 124.60993986 -130.55257593 128.48239966 -130.77113152 132.35510159 C-130.94196658 135.34859661 -131.1206515 138.34158567 -131.30151749 141.33448982 C-131.38651723 142.76284051 -131.46862801 144.19136625 -131.5477562 145.62005424 C-131.65880954 147.61103297 -131.78201595 149.60132257 -131.90576172 151.59155273 C-131.97238007 152.72197495 -132.03899841 153.85239716 -132.1076355 155.01707458 C-132.48799967 157.84060628 -132.90921336 159.5844062 -134.5 161.9296875 C-142.31590486 166.22077252 -152.19073147 166.43083931 -160.69140625 164.02734375 C-163.03034023 163.09243557 -165.27271985 162.10359515 -167.5 160.9296875 C-168.08494718 149.00326444 -166.66554986 138.42923127 -163.5 126.9296875 C-163.29632813 126.18912109 -163.09265625 125.44855469 -162.8828125 124.68554688 C-159.11783526 111.35706264 -153.94738694 98.57191117 -148.65917969 85.78637695 C-147.88305306 83.87368579 -147.13379457 81.9498827 -146.41113281 80.01635742 C-146.07178711 79.11377197 -145.73244141 78.21118652 -145.3828125 77.28125 C-145.09035645 76.47896973 -144.79790039 75.67668945 -144.49658203 74.85009766 C-143.5 72.9296875 -143.5 72.9296875 -140.5 71.3671875 C-139.51 71.2228125 -138.52 71.0784375 -137.5 70.9296875 C-135.52 70.4346875 -135.52 70.4346875 -133.5 69.9296875 C-137.79 69.9296875 -142.08 69.9296875 -146.5 69.9296875 C-146.83 71.5796875 -147.16 73.2296875 -147.5 74.9296875 C-147.83 75.5896875 -148.16 76.2496875 -148.5 76.9296875 C-152.72707962 76.20703226 -156.69532943 74.93769106 -160.734375 73.53125 C-161.41300598 73.29562347 -162.09163696 73.05999695 -162.79083252 72.81723022 C-164.21687563 72.3199037 -165.64221968 71.82056861 -167.06689453 71.31933594 C-169.25322073 70.55355942 -171.44475357 69.80414438 -173.63671875 69.0546875 C-175.02378906 68.5687106 -176.4105205 68.08176516 -177.796875 67.59375 C-178.7827359 67.26076401 -178.7827359 67.26076401 -179.78851318 66.92105103 C-181.62011719 66.26416016 -181.62011719 66.26416016 -184.5 64.9296875 C-184.83 63.9396875 -185.16 62.9496875 -185.5 61.9296875 C-182.66844868 60.71704487 -179.83483905 59.50960364 -177 58.3046875 C-176.22785156 57.97339844 -175.45570313 57.64210937 -174.66015625 57.30078125 C-168.14346447 54.53770394 -161.53720511 52.03966936 -154.90478516 49.57226562 C-150.30214922 47.8596569 -145.71073327 46.11818953 -141.12109375 44.37109375 C-140.30841537 44.06179428 -139.495737 43.75249481 -138.65843201 43.43382263 C-136.08459775 42.45377619 -133.51101696 41.47306679 -130.9375 40.4921875 C-130.0329306 40.14753448 -129.12836121 39.80288147 -128.19638062 39.44778442 C-111.06525189 32.91960346 -93.95092262 26.34826944 -76.84391785 19.75717163 C-70.87030207 17.4560716 -64.89446883 15.16078451 -58.91796875 12.8671875 C-56.29077462 11.85847989 -53.66361525 10.84968185 -51.03646851 9.84085083 C-49.37955919 9.20482013 -47.72252128 8.56912427 -46.06533813 7.93380737 C-44.50564007 7.33581544 -42.94616126 6.7372513 -41.38691711 6.13807678 C-39.89550272 5.56539386 -38.40339984 4.99450028 -36.91056824 4.42552185 C-33.34074368 3.05782841 -29.80232422 1.64611334 -26.29296875 0.12939453 C-25.62120605 -0.15592636 -24.94944336 -0.44124725 -24.25732422 -0.73521423 C-22.44337277 -1.51047297 -20.63735315 -2.30421819 -18.83203125 -3.09936523 C-12.10293122 -5.06021157 -6.24747306 -2.44707934 0 0 Z " fill="#FF6600" transform="translate(308.5,49.0703125)"/>
<path d="M0 0 C8.33872503 1.98993298 16.52245834 4.30768182 24.69921875 6.87890625 C25.88155594 7.24775436 27.06389313 7.61660248 28.28205872 7.99662781 C30.79293791 8.78010076 33.30340252 9.56490349 35.81347656 10.35095215 C39.72125768 11.57425405 43.63186452 12.78834833 47.54296875 14.00097656 C68.83525731 20.60650837 68.83525731 20.60650837 78.36177063 23.6917572 C81.39730013 24.67336719 84.43767364 25.63928267 87.47915649 26.6022644 C88.80695237 27.02785929 90.13210519 27.46180731 91.45419312 27.90481567 C93.24384703 28.50431612 95.04364308 29.07328294 96.84375 29.640625 C98.28524414 30.11290527 98.28524414 30.11290527 99.75585938 30.59472656 C108.35662686 31.66917524 117.30254428 27.81227238 125.3984375 25.25390625 C127.16442795 24.70274895 127.16442795 24.70274895 128.96609497 24.14045715 C132.1211393 23.15504189 135.27479806 22.1653373 138.427948 21.17388153 C141.68960663 20.14970865 144.95321387 19.13179044 148.21679688 18.11376953 C149.52569998 17.7053967 150.83459891 17.29701049 152.14349365 16.88861084 C152.78945244 16.68706139 153.43541122 16.48551193 154.10094452 16.27785492 C156.05136427 15.66900614 158.00157861 15.05950399 159.95172119 14.44976807 C170.02816436 11.2994685 180.11074863 8.16987734 190.2053833 5.07833862 C191.72882296 4.61137874 193.25189827 4.14322842 194.77459717 3.67385864 C196.83849905 3.03768671 198.90343407 2.40500097 200.96875 1.7734375 C202.66161133 1.25402588 202.66161133 1.25402588 204.38867188 0.72412109 C207 0 207 0 209 0 C209.09319077 7.25905382 209.16401115 14.51797605 209.20724869 21.77750969 C209.22801376 25.14941602 209.25612389 28.52090938 209.30175781 31.89257812 C209.35056663 35.78005653 209.37303643 39.66695735 209.390625 43.5546875 C209.41127014 44.74988007 209.43191528 45.94507263 209.45318604 47.17648315 C209.4556884 56.62216735 207.76990626 65.00060539 201 72 C184.24430977 87.07741431 161.8009556 93.48016862 140 97 C139.03344482 97.15662109 139.03344482 97.15662109 138.04736328 97.31640625 C99.47080852 103.23253889 50.42291349 101.14648979 17 79 C8.83845399 72.4800114 2.37597615 66.39818713 0 56 C-0.38506041 51.61749553 -0.35073417 47.26763398 -0.29296875 42.87109375 C-0.28872391 41.64084976 -0.28447906 40.41060577 -0.28010559 39.14308167 C-0.26340766 35.24099184 -0.22577075 31.33943188 -0.1875 27.4375 C-0.17073803 24.78060652 -0.15875539 22.12371802 -0.14648438 19.46679688 C-0.11353318 12.97768595 -0.06342238 6.48888085 0 0 Z " fill="#FF6600" transform="translate(191,148)"/>
<path d="M0 0 C3 1 3 1 3 1 Z " fill="#FF6600" transform="translate(387,431)"/>
<path d="M0 0 C0.99 0.495 0.99 0.495 2 1 C1.01 1.495 1.01 1.495 0 2 C0 1.34 0 0.68 0 0 Z " fill="#FF6600" transform="translate(206,428)"/>
<path d="" fill="#FF6600" transform="translate(0,0)"/>
<path d="" fill="#FF6600" transform="translate(0,0)"/>
<path d="" fill="#FF6600" transform="translate(0,0)"/>
<path d="" fill="#FF6600" transform="translate(0,0)"/>
<path d="" fill="#FF6600" transform="translate(0,0)"/>
<path d="" fill="#FF6600" transform="translate(0,0)"/>
</svg>
